<?xml version="1.0" encoding="UTF-8" standalone="no"?>
<!DOCTYPE svg PUBLIC "-//W3C//DTD SVG 1.1//EN"
 "http://www.w3.org/Graphics/SVG/1.1/DTD/svg11.dtd">
<!-- Generated by graphviz version 2.38.0 (20140413.2041)
 -->
<!-- Title: G Pages: 1 -->
<svg width="633pt" height="1422pt"
 viewBox="0.00 0.00 632.77 1422.00" xmlns="http://www.w3.org/2000/svg" xmlns:xlink="http://www.w3.org/1999/xlink">
<g id="graph0" class="graph" transform="scale(1 1) rotate(0) translate(4 1418)">
<title>G</title>
<polygon fill="white" stroke="none" points="-4,4 -4,-1418 628.766,-1418 628.766,4 -4,4"/>
<g id="clust1" class="cluster"><title>cluster_Global</title>
<path fill="none" stroke="gray" d="M157.883,-206C157.883,-206 604.766,-206 604.766,-206 610.766,-206 616.766,-212 616.766,-218 616.766,-218 616.766,-1394 616.766,-1394 616.766,-1400 610.766,-1406 604.766,-1406 604.766,-1406 157.883,-1406 157.883,-1406 151.883,-1406 145.883,-1400 145.883,-1394 145.883,-1394 145.883,-218 145.883,-218 145.883,-212 151.883,-206 157.883,-206"/>
<text text-anchor="middle" x="381.324" y="-1393.2" font-family="Times New Roman,serif" font-size="11.00" fill="gray">Global</text>
</g>
<g id="clust2" class="cluster"><title>cluster_\classes</title>
<path fill="none" stroke="gray" d="M469.766,-814C469.766,-814 595.766,-814 595.766,-814 601.766,-814 607.766,-820 607.766,-826 607.766,-826 607.766,-1366 607.766,-1366 607.766,-1372 601.766,-1378 595.766,-1378 595.766,-1378 469.766,-1378 469.766,-1378 463.766,-1378 457.766,-1372 457.766,-1366 457.766,-1366 457.766,-826 457.766,-826 457.766,-820 463.766,-814 469.766,-814"/>
<text text-anchor="middle" x="532.766" y="-1365.2" font-family="Times New Roman,serif" font-size="11.00" fill="gray">classes</text>
</g>
<g id="clust3" class="cluster"><title>cluster_\classes\business</title>
<path fill="none" stroke="gray" d="M477.766,-1170C477.766,-1170 587.766,-1170 587.766,-1170 593.766,-1170 599.766,-1176 599.766,-1182 599.766,-1182 599.766,-1338 599.766,-1338 599.766,-1344 593.766,-1350 587.766,-1350 587.766,-1350 477.766,-1350 477.766,-1350 471.766,-1350 465.766,-1344 465.766,-1338 465.766,-1338 465.766,-1182 465.766,-1182 465.766,-1176 471.766,-1170 477.766,-1170"/>
<text text-anchor="middle" x="532.766" y="-1337.2" font-family="Times New Roman,serif" font-size="11.00" fill="gray">business</text>
</g>
<g id="clust4" class="cluster"><title>cluster_\classes\data</title>
<path fill="none" stroke="gray" d="M484.766,-1090C484.766,-1090 580.766,-1090 580.766,-1090 586.766,-1090 592.766,-1096 592.766,-1102 592.766,-1102 592.766,-1150 592.766,-1150 592.766,-1156 586.766,-1162 580.766,-1162 580.766,-1162 484.766,-1162 484.766,-1162 478.766,-1162 472.766,-1156 472.766,-1150 472.766,-1150 472.766,-1102 472.766,-1102 472.766,-1096 478.766,-1090 484.766,-1090"/>
<text text-anchor="middle" x="532.766" y="-1149.2" font-family="Times New Roman,serif" font-size="11.00" fill="gray">data</text>
</g>
<g id="clust5" class="cluster"><title>cluster_\classes\entity</title>
<path fill="none" stroke="gray" d="M501.266,-956C501.266,-956 564.266,-956 564.266,-956 570.266,-956 576.266,-962 576.266,-968 576.266,-968 576.266,-1070 576.266,-1070 576.266,-1076 570.266,-1082 564.266,-1082 564.266,-1082 501.266,-1082 501.266,-1082 495.266,-1082 489.266,-1076 489.266,-1070 489.266,-1070 489.266,-968 489.266,-968 489.266,-962 495.266,-956 501.266,-956"/>
<text text-anchor="middle" x="532.766" y="-1069.2" font-family="Times New Roman,serif" font-size="11.00" fill="gray">entity</text>
</g>
<g id="clust6" class="cluster"><title>cluster_\classes\util</title>
<path fill="none" stroke="gray" d="M508.266,-822C508.266,-822 557.266,-822 557.266,-822 563.266,-822 569.266,-828 569.266,-834 569.266,-834 569.266,-936 569.266,-936 569.266,-942 563.266,-948 557.266,-948 557.266,-948 508.266,-948 508.266,-948 502.266,-948 496.266,-942 496.266,-936 496.266,-936 496.266,-834 496.266,-834 496.266,-828 502.266,-822 508.266,-822"/>
<text text-anchor="middle" x="532.766" y="-935.2" font-family="Times New Roman,serif" font-size="11.00" fill="gray">util</text>
</g>
<g id="clust7" class="cluster"><title>cluster_\League</title>
<path fill="none" stroke="gray" d="M484.266,-582C484.266,-582 581.266,-582 581.266,-582 587.266,-582 593.266,-588 593.266,-594 593.266,-594 593.266,-750 593.266,-750 593.266,-756 587.266,-762 581.266,-762 581.266,-762 484.266,-762 484.266,-762 478.266,-762 472.266,-756 472.266,-750 472.266,-750 472.266,-594 472.266,-594 472.266,-588 478.266,-582 484.266,-582"/>
<text text-anchor="middle" x="532.766" y="-749.2" font-family="Times New Roman,serif" font-size="11.00" fill="gray">League</text>
</g>
<g id="clust8" class="cluster"><title>cluster_\League\OAuth2</title>
<path fill="none" stroke="gray" d="M492.266,-590C492.266,-590 573.266,-590 573.266,-590 579.266,-590 585.266,-596 585.266,-602 585.266,-602 585.266,-722 585.266,-722 585.266,-728 579.266,-734 573.266,-734 573.266,-734 492.266,-734 492.266,-734 486.266,-734 480.266,-728 480.266,-722 480.266,-722 480.266,-602 480.266,-602 480.266,-596 486.266,-590 492.266,-590"/>
<text text-anchor="middle" x="532.766" y="-721.2" font-family="Times New Roman,serif" font-size="11.00" fill="gray">OAuth2</text>
</g>
<g id="clust9" class="cluster"><title>cluster_\League\OAuth2\Client</title>
<path fill="none" stroke="gray" d="M500.266,-598C500.266,-598 565.266,-598 565.266,-598 571.266,-598 577.266,-604 577.266,-610 577.266,-610 577.266,-694 577.266,-694 577.266,-700 571.266,-706 565.266,-706 565.266,-706 500.266,-706 500.266,-706 494.266,-706 488.266,-700 488.266,-694 488.266,-694 488.266,-610 488.266,-610 488.266,-604 494.266,-598 500.266,-598"/>
<text text-anchor="middle" x="532.766" y="-693.2" font-family="Times New Roman,serif" font-size="11.00" fill="gray">Client</text>
</g>
<g id="clust10" class="cluster"><title>cluster_\League\OAuth2\Client\Provider</title>
<path fill="none" stroke="gray" d="M508.266,-606C508.266,-606 557.266,-606 557.266,-606 563.266,-606 569.266,-612 569.266,-618 569.266,-618 569.266,-666 569.266,-666 569.266,-672 563.266,-678 557.266,-678 557.266,-678 508.266,-678 508.266,-678 502.266,-678 496.266,-672 496.266,-666 496.266,-666 496.266,-618 496.266,-618 496.266,-612 502.266,-606 508.266,-606"/>
<text text-anchor="middle" x="532.766" y="-665.2" font-family="Times New Roman,serif" font-size="11.00" fill="gray">Provider</text>
</g>
<!-- \\classes\\business\\FeedbackManager -->
<g id="node1" class="node"><title>\\classes\\business\\FeedbackManager</title>
<polygon fill="none" stroke="black" points="591.766,-1322 473.766,-1322 473.766,-1286 591.766,-1286 591.766,-1322"/>
<text text-anchor="middle" x="532.766" y="-1301.2" font-family="Courier,monospace" font-size="11.00">FeedbackManager</text>
</g>
<!-- \\classes\\business\\UserManager -->
<g id="node2" class="node"><title>\\classes\\business\\UserManager</title>
<polygon fill="none" stroke="black" points="578.266,-1268 487.266,-1268 487.266,-1232 578.266,-1232 578.266,-1268"/>
<text text-anchor="middle" x="532.766" y="-1247.2" font-family="Courier,monospace" font-size="11.00">UserManager</text>
</g>
<!-- \\classes\\business\\Validation -->
<g id="node3" class="node"><title>\\classes\\business\\Validation</title>
<polygon fill="none" stroke="black" points="574.766,-1214 490.766,-1214 490.766,-1178 574.766,-1178 574.766,-1214"/>
<text text-anchor="middle" x="532.766" y="-1193.2" font-family="Courier,monospace" font-size="11.00">Validation</text>
</g>
<!-- \\classes\\data\\UserManagerDB -->
<g id="node4" class="node"><title>\\classes\\data\\UserManagerDB</title>
<polygon fill="none" stroke="black" points="584.766,-1134 480.766,-1134 480.766,-1098 584.766,-1098 584.766,-1134"/>
<text text-anchor="middle" x="532.766" y="-1113.2" font-family="Courier,monospace" font-size="11.00">UserManagerDB</text>
</g>
<!-- \\classes\\entity\\Feedback -->
<g id="node5" class="node"><title>\\classes\\entity\\Feedback</title>
<polygon fill="none" stroke="black" points="568.266,-1054 497.266,-1054 497.266,-1018 568.266,-1018 568.266,-1054"/>
<text text-anchor="middle" x="532.766" y="-1033.2" font-family="Courier,monospace" font-size="11.00">Feedback</text>
</g>
<!-- \\classes\\entity\\User -->
<g id="node6" class="node"><title>\\classes\\entity\\User</title>
<polygon fill="none" stroke="black" points="559.766,-1000 505.766,-1000 505.766,-964 559.766,-964 559.766,-1000"/>
<text text-anchor="middle" x="532.766" y="-979.2" font-family="Courier,monospace" font-size="11.00">User</text>
</g>
<!-- \\classes\\util\\Config -->
<g id="node7" class="node"><title>\\classes\\util\\Config</title>
<polygon fill="none" stroke="black" points="561.266,-920 504.266,-920 504.266,-884 561.266,-884 561.266,-920"/>
<text text-anchor="middle" x="532.766" y="-899.2" font-family="Courier,monospace" font-size="11.00">Config</text>
</g>
<!-- \\classes\\util\\DBUtil -->
<g id="node8" class="node"><title>\\classes\\util\\DBUtil</title>
<polygon fill="none" stroke="black" points="561.266,-866 504.266,-866 504.266,-830 561.266,-830 561.266,-866"/>
<text text-anchor="middle" x="532.766" y="-845.2" font-family="Courier,monospace" font-size="11.00">DBUtil</text>
</g>
<!-- \\League\\OAuth2\\Client\\Provider\\Google -->
<g id="node9" class="node"><title>\\League\\OAuth2\\Client\\Provider\\Google</title>
<polygon fill="none" stroke="black" points="561.266,-650 504.266,-650 504.266,-614 561.266,-614 561.266,-650"/>
<text text-anchor="middle" x="532.766" y="-629.2" font-family="Courier,monospace" font-size="11.00">Google</text>
</g>
<!-- \\League\\OAuth2\\Client\\Provider\\AbstractProvider -->
<g id="node21" class="node"><title>\\League\\OAuth2\\Client\\Provider\\AbstractProvider</title>
<ellipse fill="none" stroke="black" cx="192.383" cy="-180" rx="192.266" ry="18"/>
<text text-anchor="middle" x="192.383" y="-176.3" font-family="Times New Roman,serif" font-size="14.00" fill="gray">\League\OAuth2\Client\Provider\AbstractProvider</text>
</g>
<!-- \\League\\OAuth2\\Client\\Provider\\Google&#45;&gt;\\League\\OAuth2\\Client\\Provider\\AbstractProvider -->
<g id="edge4" class="edge"><title>\\League\\OAuth2\\Client\\Provider\\Google&#45;&gt;\\League\\OAuth2\\Client\\Provider\\AbstractProvider</title>
<path fill="none" stroke="black" d="M504.063,-630.86C487.982,-628.696 468.621,-623.245 456.766,-610 333.962,-472.796 518.83,-328.224 384.766,-202 381.387,-198.819 377.813,-195.918 374.073,-193.276"/>
<polygon fill="none" stroke="black" points="375.95,-190.322 365.636,-187.899 372.188,-196.225 375.95,-190.322"/>
</g>
<!-- \\UserManagerTest -->
<g id="node10" class="node"><title>\\UserManagerTest</title>
<polygon fill="none" stroke="black" points="591.766,-574 473.766,-574 473.766,-538 591.766,-538 591.766,-574"/>
<text text-anchor="middle" x="532.766" y="-553.2" font-family="Courier,monospace" font-size="11.00">UserManagerTest</text>
</g>
<!-- \\PHPUnit_Framework_TestCase -->
<g id="node19" class="node"><title>\\PHPUnit_Framework_TestCase</title>
<ellipse fill="none" stroke="black" cx="192.383" cy="-126" rx="130.777" ry="18"/>
<text text-anchor="middle" x="192.383" y="-122.3" font-family="Times New Roman,serif" font-size="14.00" fill="gray">\PHPUnit_Framework_TestCase</text>
</g>
<!-- \\UserManagerTest&#45;&gt;\\PHPUnit_Framework_TestCase -->
<g id="edge1" class="edge"><title>\\UserManagerTest&#45;&gt;\\PHPUnit_Framework_TestCase</title>
<path fill="none" stroke="black" d="M473.699,-542.311C467.312,-538.832 461.441,-534.47 456.766,-529 346.217,-399.659 507.992,-270.326 384.766,-153 369.346,-138.319 349.813,-129.256 329.153,-123.929"/>
<polygon fill="none" stroke="black" points="329.792,-120.485 319.264,-121.672 328.234,-127.31 329.792,-120.485"/>
</g>
<!-- \\PHPMailer -->
<g id="node11" class="node"><title>\\PHPMailer</title>
<polygon fill="none" stroke="black" points="230.883,-806 153.883,-806 153.883,-770 230.883,-770 230.883,-806"/>
<text text-anchor="middle" x="192.383" y="-785.2" font-family="Courier,monospace" font-size="11.00">PHPMailer</text>
</g>
<!-- \\phpmailerException -->
<g id="node12" class="node"><title>\\phpmailerException</title>
<polygon fill="none" stroke="black" points="601.766,-520 463.766,-520 463.766,-484 601.766,-484 601.766,-520"/>
<text text-anchor="middle" x="532.766" y="-499.2" font-family="Courier,monospace" font-size="11.00">phpmailerException</text>
</g>
<!-- \\Exception -->
<g id="node20" class="node"><title>\\Exception</title>
<ellipse fill="none" stroke="black" cx="192.383" cy="-72" rx="50.0912" ry="18"/>
<text text-anchor="middle" x="192.383" y="-68.3" font-family="Times New Roman,serif" font-size="14.00" fill="gray">\Exception</text>
</g>
<!-- \\phpmailerException&#45;&gt;\\Exception -->
<g id="edge2" class="edge"><title>\\phpmailerException&#45;&gt;\\Exception</title>
<path fill="none" stroke="black" d="M466.597,-483.892C462.973,-481.313 459.643,-478.366 456.766,-475 346.217,-345.659 507.992,-216.326 384.766,-99 348.994,-64.9408 291.084,-61.1227 248.322,-64.0293"/>
<polygon fill="none" stroke="black" points="248.03,-60.5414 238.349,-64.8459 248.601,-67.5181 248.03,-60.5414"/>
</g>
<!-- \\PHPMailerOAuth -->
<g id="node13" class="node"><title>\\PHPMailerOAuth</title>
<polygon fill="none" stroke="black" points="588.266,-806 477.266,-806 477.266,-770 588.266,-770 588.266,-806"/>
<text text-anchor="middle" x="532.766" y="-785.2" font-family="Courier,monospace" font-size="11.00">PHPMailerOAuth</text>
</g>
<!-- \\PHPMailerOAuth&#45;&gt;\\PHPMailer -->
<g id="edge3" class="edge"><title>\\PHPMailerOAuth&#45;&gt;\\PHPMailer</title>
<path fill="none" stroke="black" d="M477.023,-788C411.776,-788 303.78,-788 241.569,-788"/>
<polygon fill="none" stroke="black" points="241.249,-784.5 231.249,-788 241.249,-791.5 241.249,-784.5"/>
</g>
<!-- \\PHPMailerOAuthGoogle -->
<g id="node14" class="node"><title>\\PHPMailerOAuthGoogle</title>
<polygon fill="none" stroke="black" points="608.766,-466 456.766,-466 456.766,-430 608.766,-430 608.766,-466"/>
<text text-anchor="middle" x="532.766" y="-445.2" font-family="Courier,monospace" font-size="11.00">PHPMailerOAuthGoogle</text>
</g>
<!-- \\POP3 -->
<g id="node15" class="node"><title>\\POP3</title>
<polygon fill="none" stroke="black" points="559.766,-412 505.766,-412 505.766,-376 559.766,-376 559.766,-412"/>
<text text-anchor="middle" x="532.766" y="-391.2" font-family="Courier,monospace" font-size="11.00">POP3</text>
</g>
<!-- \\SMTP -->
<g id="node16" class="node"><title>\\SMTP</title>
<polygon fill="none" stroke="black" points="559.766,-358 505.766,-358 505.766,-322 559.766,-322 559.766,-358"/>
<text text-anchor="middle" x="532.766" y="-337.2" font-family="Courier,monospace" font-size="11.00">SMTP</text>
</g>
<!-- \\ComplexQueryTest -->
<g id="node17" class="node"><title>\\ComplexQueryTest</title>
<polygon fill="none" stroke="black" points="595.266,-304 470.266,-304 470.266,-268 595.266,-268 595.266,-304"/>
<text text-anchor="middle" x="532.766" y="-283.2" font-family="Courier,monospace" font-size="11.00">ComplexQueryTest</text>
</g>
<!-- \\PHPUNit_Extensions_Database_TestCase -->
<g id="node22" class="node"><title>\\PHPUNit_Extensions_Database_TestCase</title>
<ellipse fill="none" stroke="black" cx="192.383" cy="-18" rx="168.97" ry="18"/>
<text text-anchor="middle" x="192.383" y="-14.3" font-family="Times New Roman,serif" font-size="14.00" fill="gray">\PHPUNit_Extensions_Database_TestCase</text>
</g>
<!-- \\ComplexQueryTest&#45;&gt;\\PHPUNit_Extensions_Database_TestCase -->
<g id="edge5" class="edge"><title>\\ComplexQueryTest&#45;&gt;\\PHPUNit_Extensions_Database_TestCase</title>
<path fill="none" stroke="black" d="M469.958,-269.219C465.132,-266.333 460.639,-262.955 456.766,-259 386.557,-187.301 461.956,-109.124 384.766,-45 376.926,-38.487 368.252,-33.1395 359.052,-28.7726"/>
<polygon fill="none" stroke="black" points="360.257,-25.4803 349.689,-24.7256 357.48,-31.9059 360.257,-25.4803"/>
</g>
<!-- \\TableDB -->
<g id="node18" class="node"><title>\\TableDB</title>
<polygon fill="none" stroke="black" points="564.766,-250 500.766,-250 500.766,-214 564.766,-214 564.766,-250"/>
<text text-anchor="middle" x="532.766" y="-229.2" font-family="Courier,monospace" font-size="11.00">TableDB</text>
</g>
</g>
</svg>
